<svg width="50" height="50" viewBox="0 0 50 50" fill="none" xmlns="http://www.w3.org/2000/svg">
<g clip-path="url(#clip0_43_3439)">
<path d="M36.2525 2.84086C38.3991 0.473476 41.0322 0.135156 44.0928 0.941736C44.095 0.942317 44.0966 0.944448 44.0966 0.946704C43.8916 4.10165 42.8144 5.31853 39.8038 6.86122L36.2525 2.84086Z" fill="white"/>
<path d="M48.6212 26.2733C38.3728 25.5608 33.605 18.9358 34.5559 9.47184C34.5562 9.46866 34.5597 9.46666 34.5625 9.46791C38.6162 11.1874 40.6109 12.5707 43.6197 15.8573C46.6003 19.1132 48.589 26.1343 48.6278 26.2718C48.6284 26.2749 48.6247 26.2736 48.6212 26.2733Z" fill="white"/>
<path d="M11.1833 30.776H38.3725V44.0291L26.9508 47.8213L11.1833 43.56V30.776Z" fill="white"/>
<path d="M39.8037 6.86122C47.9128 8.28166 52.4444 17.041 48.6281 26.2738C42.1888 10.4123 37.3741 4.60734 26.2632 4.54C23.5292 4.52344 20.8011 5.0325 18.2503 6.00944C12.8528 8.51841 9.0005 11.3252 6.44063 17.1685C4.42425 21.7712 4.15888 27.005 5.56053 31.8275C8.34956 41.4228 13.5089 44.4384 22.8699 45.2128C34.3181 45.6862 38.6112 44.7394 44.0966 38.1106C40.2806 46.16 29.7016 51.7931 18.5769 49.4741C14.4087 48.6053 11.074 46.7853 7.84428 44.0291C4.65219 41.3053 2.30708 38.0662 1.16619 34.0863C-0.920896 26.8052 -0.346196 18.2704 4.02822 12.0695C4.768 11.0208 5.65094 9.88925 6.41325 8.99187C10.0433 4.71863 15.6619 1.47964 21.2004 0.469278C27.8113 -0.736725 36.5963 0.0428528 39.8037 6.86122Z" fill="url(#paint0_linear_43_3439)"/>
<path d="M19.3187 20.833H15.7412L8.02151 31.4253C7.77258 31.7669 7.66673 32.1962 7.75964 32.6087C8.20667 34.5928 8.97398 35.2219 10.9711 35.2741C13.0867 35.1928 13.7789 34.5625 14.0717 31.9597L19.3187 20.833Z" fill="white"/>
<path d="M29.5743 20.833H33.1519L40.8716 31.4253C41.1206 31.7669 41.2262 32.1962 41.1334 32.6087C40.6862 34.5928 39.9191 35.2219 37.9219 35.2741C35.8062 35.1928 35.1141 34.5625 34.8212 31.9597L29.5743 20.833Z" fill="white"/>
<path d="M26.4738 20.833H22.6578L20.9883 31.9597C21.353 33.5475 21.8865 34.3756 23.0318 34.9519C23.9805 35.4294 25.1364 35.3716 26.049 34.8281C27.0866 34.2103 27.6445 33.4106 27.9048 31.9597L26.4738 20.833Z" fill="white"/>
<path d="M22.6577 20.833H19.3187L14.0717 31.9597C14.4163 33.3259 14.9108 34.1278 15.7017 34.6241C16.8609 35.3516 18.4808 35.4147 19.581 34.6006C20.2336 34.1178 20.6413 33.3263 20.9882 31.9597L22.6577 20.833Z" fill="url(#paint1_linear_43_3439)"/>
<path d="M26.2353 20.833H29.5744L34.8213 31.9597C34.4769 33.3259 33.9822 34.1278 33.1913 34.6241C32.0322 35.3516 30.4123 35.4147 29.3121 34.6006C28.6595 34.1178 28.2517 33.3263 27.9048 31.9597L26.2353 20.833Z" fill="url(#paint2_linear_43_3439)"/>
<path d="M40.4146 33.88L40.0413 33.5474L40.4146 33.88ZM34.4039 32.2732L33.9342 32.1018L34.4039 32.2732ZM34.5998 32.2719L34.1327 32.4504L34.5998 32.2719ZM27.8929 32.2064L27.4508 31.9729L27.8929 32.2064ZM28.0802 32.2183L27.6128 32.3958L28.0802 32.2183ZM22.9445 34.3521L22.6837 34.7787L22.9445 34.3521ZM26.065 34.3773L25.8067 33.9491L26.065 34.3773ZM20.9122 32.1778L21.359 32.4023L20.9122 32.1778ZM21.0931 32.1753L21.5332 31.938L21.0931 32.1753ZM19.3122 34.2482L19.0258 33.8384L19.3122 34.2482ZM13.9356 32.2028L14.411 32.3577L13.9356 32.2028ZM14.1174 32.1774L14.5329 31.8992L14.1174 32.1774ZM7.01081 31.6034C7.29044 32.926 7.71444 34.0592 8.79655 34.8052L9.36415 33.9819C8.60994 33.462 8.25534 32.6555 7.98919 31.3966L7.01081 31.6034ZM12.201 35.2508C13.2817 34.8549 13.8942 33.9438 14.411 32.3577L13.4602 32.0479C12.9719 33.5467 12.495 34.0781 11.8571 34.3118L12.201 35.2508ZM13.702 32.4555C14.274 33.31 14.7897 33.9406 15.469 34.458L16.0748 33.6624C15.5217 33.2412 15.0781 32.7135 14.5329 31.8992L13.702 32.4555ZM19.5986 34.658C20.324 34.151 20.8394 33.4364 21.359 32.4023L20.4654 31.9533C19.9793 32.9209 19.5561 33.4677 19.0258 33.8384L19.5986 34.658ZM20.6529 32.4125C21.2436 33.5083 21.812 34.2458 22.6837 34.7787L23.2053 33.9255C22.5484 33.5239 22.0845 32.9607 21.5332 31.938L20.6529 32.4125ZM26.3233 34.8054C27.1917 34.2815 27.7551 33.5379 28.335 32.4399L27.4508 31.9729C26.9087 32.9992 26.4513 33.5603 25.8067 33.9491L26.3233 34.8054ZM27.6128 32.3958C27.923 33.213 28.2809 33.8573 28.8341 34.3547L29.5027 33.611C29.118 33.2652 28.8314 32.7883 28.5477 32.0409L27.6128 32.3958ZM34.0749 34.0328C34.386 33.6112 34.6383 33.0895 34.8736 32.4446L33.9342 32.1018C33.7159 32.7 33.5027 33.1239 33.2703 33.4389L34.0749 34.0328ZM34.1327 32.4504C34.6001 33.6735 35.167 34.4869 36.0852 34.9619L36.5447 34.0737C35.9357 33.7587 35.4919 33.2058 35.0669 32.0934L34.1327 32.4504ZM40.7879 34.2126C41.3736 33.5553 41.7776 32.6815 41.9906 31.5963L41.0094 31.4037C40.8226 32.355 40.4823 33.0523 40.0413 33.5474L40.7879 34.2126ZM36.0852 34.9619C37.5844 35.7375 39.6205 35.5231 40.7879 34.2126L40.0413 33.5474C39.2212 34.4679 37.6993 34.671 36.5447 34.0737L36.0852 34.9619ZM34.8736 32.4446C34.747 32.7917 34.2634 32.7923 34.1327 32.4504L35.0669 32.0934C34.8684 31.5741 34.1259 31.5764 33.9342 32.1018L34.8736 32.4446ZM28.8341 34.3547C29.5707 35.0169 30.5769 35.3312 31.5351 35.2937C32.4947 35.2562 33.4632 34.8615 34.0749 34.0328L33.2703 33.4389C32.8771 33.9716 32.2227 34.266 31.496 34.2945C30.7678 34.3229 30.0243 34.08 29.5027 33.611L28.8341 34.3547ZM28.335 32.4399C28.1733 32.7462 27.733 32.7126 27.6128 32.3958L28.5477 32.0409C28.3652 31.56 27.6945 31.5115 27.4508 31.9729L28.335 32.4399ZM22.6837 34.7787C23.7808 35.4494 25.2125 35.4755 26.3233 34.8054L25.8067 33.9491C25.0252 34.4206 23.9939 34.4076 23.2053 33.9255L22.6837 34.7787ZM21.359 32.4023C21.2138 32.6911 20.8055 32.6956 20.6529 32.4125L21.5332 31.938C21.3027 31.5104 20.6842 31.5178 20.4654 31.9533L21.359 32.4023ZM15.469 34.458C16.6303 35.3422 18.3399 35.5378 19.5986 34.658L19.0258 33.8384C18.1838 34.4269 16.9527 34.3308 16.0748 33.6624L15.469 34.458ZM14.411 32.3577C14.309 32.6708 13.8888 32.7346 13.702 32.4555L14.5329 31.8992C14.252 31.4795 13.6146 31.574 13.4602 32.0479L14.411 32.3577ZM8.79655 34.8052C9.77421 35.4792 11.0769 35.6626 12.201 35.2508L11.8571 34.3118C11.0466 34.6087 10.0828 34.4774 9.36415 33.9819L8.79655 34.8052Z" fill="#2F9E44"/>
<path d="M21.2818 38.5806C21.1718 38.3787 21.0205 38.2253 20.828 38.12C20.6355 38.0144 20.4109 37.9619 20.1543 37.9619C19.8701 37.9619 19.618 38.0259 19.398 38.1544C19.178 38.2825 19.0061 38.4659 18.8824 38.7044C18.7586 38.9425 18.6968 39.2175 18.6968 39.5294C18.6968 39.85 18.7586 40.1297 18.8824 40.3681C19.0107 40.6062 19.1872 40.7897 19.4118 40.9181C19.6363 41.0462 19.8976 41.1106 20.1955 41.1106C20.5622 41.1106 20.8624 41.0144 21.0961 40.8219C21.3299 40.6247 21.4834 40.3519 21.5568 40.0037H19.9068V39.2681H22.5055V40.1069C22.4413 40.4412 22.3038 40.7506 22.093 41.035C21.8822 41.3191 21.6094 41.5481 21.2749 41.7225C20.9449 41.8919 20.5736 41.9769 20.1611 41.9769C19.6982 41.9769 19.2788 41.8737 18.903 41.6675C18.5318 41.4566 18.2384 41.1656 18.023 40.7944C17.8122 40.4231 17.7068 40.0012 17.7068 39.5294C17.7068 39.0572 17.8122 38.6356 18.023 38.2644C18.2384 37.8884 18.5318 37.5975 18.903 37.3912C19.2788 37.1803 19.6959 37.075 20.1543 37.075C20.6951 37.075 21.1649 37.2078 21.5636 37.4737C21.9624 37.735 22.2374 38.1037 22.3886 38.5806H21.2818ZM23.9876 41.9837C23.8134 41.9837 23.669 41.9309 23.5545 41.8256C23.4445 41.7156 23.3895 41.5803 23.3895 41.42C23.3895 41.2594 23.4445 41.1266 23.5545 41.0212C23.669 40.9112 23.8134 40.8562 23.9876 40.8562C24.1572 40.8562 24.297 40.9112 24.407 41.0212C24.517 41.1266 24.572 41.2594 24.572 41.42C24.572 41.5803 24.517 41.7156 24.407 41.8256C24.297 41.9309 24.1572 41.9837 23.9876 41.9837ZM30.9229 37.1369V41.9356H29.9604V38.8144L28.6747 41.9356H27.946L26.6535 38.8144V41.9356H25.691V37.1369H26.7841L28.3104 40.705L29.8366 37.1369H30.9229Z" fill="#2F9E44"/>
</g>
<defs>
<linearGradient id="paint0_linear_43_3439" x1="11.2096" y1="45.9272" x2="49.8112" y2="8.94659" gradientUnits="userSpaceOnUse">
<stop offset="0.292903" stop-color="white"/>
</linearGradient>
<linearGradient id="paint1_linear_43_3439" x1="18.3647" y1="20.833" x2="18.3647" y2="36.4578" gradientUnits="userSpaceOnUse">
<stop stop-color="white"/>
<stop offset="1" stop-color="#FCFCFC"/>
</linearGradient>
<linearGradient id="paint2_linear_43_3439" x1="30.5284" y1="20.833" x2="30.5284" y2="36.4578" gradientUnits="userSpaceOnUse">
<stop stop-color="white"/>
<stop offset="1" stop-color="#FCFCFC"/>
</linearGradient>
<clipPath id="clip0_43_3439">
<rect width="50" height="50" fill="white"/>
</clipPath>
</defs>
</svg>
