<svg width="200" height="50" viewBox="0 0 200 50" fill="none" xmlns="http://www.w3.org/2000/svg">
<g clip-path="url(#clip0_43_3438)">
<path d="M36.2525 2.84086C38.3991 0.473476 41.0322 0.135156 44.0928 0.941736C44.095 0.942317 44.0966 0.944448 44.0966 0.946704C43.8916 4.10165 42.8144 5.31853 39.8038 6.86122L36.2525 2.84086Z" fill="white"/>
<path d="M48.6212 26.2733C38.3728 25.5608 33.605 18.9358 34.5559 9.47184C34.5562 9.46866 34.5597 9.46666 34.5625 9.46791C38.6162 11.1874 40.6109 12.5707 43.6197 15.8573C46.6003 19.1132 48.589 26.1343 48.6278 26.2718C48.6284 26.2749 48.6247 26.2736 48.6212 26.2733Z" fill="white"/>
<path d="M11.1833 30.776H38.3725V44.0291L26.9508 47.8213L11.1833 43.56V30.776Z" fill="white"/>
<path d="M39.8038 6.86122C47.9128 8.28166 52.4444 17.041 48.6281 26.2738C42.1887 10.4123 37.3741 4.60734 26.2632 4.54C23.5292 4.52344 20.8011 5.0325 18.2503 6.00944C12.8528 8.51841 9.0005 11.3252 6.44063 17.1685C4.42425 21.7712 4.15888 27.005 5.56053 31.8275C8.34956 41.4228 13.5089 44.4384 22.8699 45.2128C34.3181 45.6862 38.6112 44.7394 44.0966 38.1106C40.2806 46.16 29.7016 51.7931 18.5769 49.4741C14.4087 48.6053 11.074 46.7853 7.84428 44.0291C4.65219 41.3053 2.30708 38.0662 1.16619 34.0862C-0.920896 26.8052 -0.346196 18.2704 4.02822 12.0695C4.768 11.0208 5.65094 9.88925 6.41325 8.99188C10.0433 4.71862 15.6619 1.47964 21.2004 0.469278C27.8113 -0.736725 36.5963 0.0428528 39.8038 6.86122Z" fill="url(#paint0_linear_43_3438)"/>
<path d="M19.3187 20.833H15.7412L8.02151 31.4253C7.77258 31.7669 7.66673 32.1962 7.75964 32.6087C8.20667 34.5928 8.97398 35.2219 10.9711 35.2741C13.0867 35.1928 13.7789 34.5625 14.0717 31.9597L19.3187 20.833Z" fill="white"/>
<path d="M29.5743 20.833H33.1519L40.8716 31.4253C41.1206 31.7669 41.2262 32.1962 41.1334 32.6087C40.6862 34.5928 39.9191 35.2219 37.9219 35.2741C35.8062 35.1928 35.1141 34.5625 34.8212 31.9597L29.5743 20.833Z" fill="white"/>
<path d="M26.4738 20.833H22.6578L20.9883 31.9597C21.353 33.5475 21.8865 34.3756 23.0318 34.9519C23.9805 35.4294 25.1364 35.3716 26.049 34.8281C27.0866 34.2103 27.6445 33.4106 27.9048 31.9597L26.4738 20.833Z" fill="white"/>
<path d="M22.6577 20.833H19.3187L14.0717 31.9597C14.4163 33.3259 14.9108 34.1278 15.7017 34.6241C16.8609 35.3516 18.4808 35.4147 19.581 34.6006C20.2336 34.1178 20.6413 33.3263 20.9882 31.9597L22.6577 20.833Z" fill="url(#paint1_linear_43_3438)"/>
<path d="M26.2353 20.833H29.5744L34.8213 31.9597C34.4769 33.3259 33.9822 34.1278 33.1913 34.6241C32.0322 35.3516 30.4123 35.4147 29.3121 34.6006C28.6595 34.1178 28.2517 33.3263 27.9048 31.9597L26.2353 20.833Z" fill="url(#paint2_linear_43_3438)"/>
<path d="M40.4146 33.88L40.0413 33.5474L40.4146 33.88ZM34.4039 32.2732L33.9342 32.1018L34.4039 32.2732ZM34.5998 32.2719L34.1327 32.4504L34.5998 32.2719ZM27.8929 32.2064L27.4508 31.9729L27.8929 32.2064ZM28.0802 32.2183L27.6128 32.3958L28.0802 32.2183ZM22.9445 34.3521L22.6837 34.7787L22.9445 34.3521ZM26.065 34.3773L25.8067 33.9491L26.065 34.3773ZM20.9122 32.1778L21.359 32.4023L20.9122 32.1778ZM21.0931 32.1753L21.5332 31.938L21.0931 32.1753ZM19.3122 34.2482L19.0258 33.8384L19.3122 34.2482ZM13.9356 32.2028L14.411 32.3577L13.9356 32.2028ZM14.1174 32.1774L14.5329 31.8992L14.1174 32.1774ZM7.01081 31.6034C7.29044 32.926 7.71444 34.0592 8.79655 34.8052L9.36415 33.9819C8.60994 33.462 8.25534 32.6555 7.98919 31.3966L7.01081 31.6034ZM12.201 35.2508C13.2817 34.8549 13.8942 33.9438 14.411 32.3577L13.4602 32.0479C12.9719 33.5467 12.495 34.0781 11.8571 34.3118L12.201 35.2508ZM13.702 32.4555C14.274 33.31 14.7897 33.9406 15.469 34.458L16.0748 33.6624C15.5217 33.2412 15.0781 32.7135 14.5329 31.8992L13.702 32.4555ZM19.5986 34.658C20.324 34.151 20.8394 33.4364 21.359 32.4023L20.4654 31.9533C19.9793 32.9209 19.5561 33.4677 19.0258 33.8384L19.5986 34.658ZM20.6529 32.4125C21.2436 33.5083 21.812 34.2458 22.6837 34.7787L23.2053 33.9255C22.5484 33.5239 22.0845 32.9607 21.5332 31.938L20.6529 32.4125ZM26.3233 34.8054C27.1917 34.2815 27.7551 33.5379 28.335 32.4399L27.4508 31.9729C26.9087 32.9992 26.4513 33.5603 25.8067 33.9491L26.3233 34.8054ZM27.6128 32.3958C27.923 33.213 28.2809 33.8573 28.8341 34.3547L29.5027 33.611C29.118 33.2652 28.8314 32.7883 28.5477 32.0409L27.6128 32.3958ZM34.0749 34.0328C34.386 33.6112 34.6383 33.0895 34.8736 32.4446L33.9342 32.1018C33.7159 32.7 33.5027 33.1239 33.2703 33.4389L34.0749 34.0328ZM34.1327 32.4504C34.6001 33.6735 35.167 34.4869 36.0852 34.9619L36.5447 34.0737C35.9357 33.7587 35.4919 33.2058 35.0669 32.0934L34.1327 32.4504ZM40.7879 34.2126C41.3736 33.5553 41.7776 32.6815 41.9906 31.5963L41.0094 31.4037C40.8226 32.355 40.4823 33.0523 40.0413 33.5474L40.7879 34.2126ZM36.0852 34.9619C37.5844 35.7375 39.6205 35.5231 40.7879 34.2126L40.0413 33.5474C39.2212 34.4679 37.6993 34.671 36.5447 34.0737L36.0852 34.9619ZM34.8736 32.4446C34.747 32.7917 34.2634 32.7923 34.1327 32.4504L35.0669 32.0934C34.8684 31.5741 34.1259 31.5764 33.9342 32.1018L34.8736 32.4446ZM28.8341 34.3547C29.5707 35.0169 30.5769 35.3312 31.5351 35.2937C32.4947 35.2562 33.4632 34.8615 34.0749 34.0328L33.2703 33.4389C32.8771 33.9716 32.2227 34.266 31.496 34.2945C30.7678 34.3229 30.0243 34.08 29.5027 33.611L28.8341 34.3547ZM28.335 32.4399C28.1733 32.7462 27.733 32.7126 27.6128 32.3958L28.5477 32.0409C28.3652 31.56 27.6945 31.5115 27.4508 31.9729L28.335 32.4399ZM22.6837 34.7787C23.7808 35.4494 25.2125 35.4755 26.3233 34.8054L25.8067 33.9491C25.0252 34.4206 23.9939 34.4076 23.2053 33.9255L22.6837 34.7787ZM21.359 32.4023C21.2138 32.6911 20.8055 32.6956 20.6529 32.4125L21.5332 31.938C21.3027 31.5104 20.6842 31.5178 20.4654 31.9533L21.359 32.4023ZM15.469 34.458C16.6303 35.3422 18.3399 35.5378 19.5986 34.658L19.0258 33.8384C18.1838 34.4269 16.9527 34.3308 16.0748 33.6624L15.469 34.458ZM14.411 32.3577C14.309 32.6708 13.8888 32.7346 13.702 32.4555L14.5329 31.8992C14.252 31.4795 13.6146 31.574 13.4602 32.0479L14.411 32.3577ZM8.79655 34.8052C9.77421 35.4792 11.0769 35.6626 12.201 35.2508L11.8571 34.3118C11.0466 34.6087 10.0828 34.4774 9.36415 33.9819L8.79655 34.8052Z" fill="#2F9E44"/>
<path d="M21.2818 38.5806C21.1718 38.3787 21.0205 38.2253 20.828 38.12C20.6355 38.0144 20.4109 37.9619 20.1543 37.9619C19.8701 37.9619 19.618 38.0259 19.398 38.1544C19.178 38.2825 19.0061 38.4659 18.8824 38.7044C18.7586 38.9425 18.6968 39.2175 18.6968 39.5294C18.6968 39.85 18.7586 40.1297 18.8824 40.3681C19.0107 40.6062 19.1872 40.7897 19.4118 40.9181C19.6363 41.0462 19.8976 41.1106 20.1955 41.1106C20.5622 41.1106 20.8624 41.0144 21.0961 40.8219C21.3299 40.6247 21.4834 40.3519 21.5568 40.0037H19.9068V39.2681H22.5055V40.1069C22.4413 40.4412 22.3038 40.7506 22.093 41.035C21.8822 41.3191 21.6094 41.5481 21.2749 41.7225C20.9449 41.8919 20.5736 41.9769 20.1611 41.9769C19.6982 41.9769 19.2788 41.8737 18.903 41.6675C18.5318 41.4566 18.2384 41.1656 18.023 40.7944C17.8122 40.4231 17.7068 40.0012 17.7068 39.5294C17.7068 39.0572 17.8122 38.6356 18.023 38.2644C18.2384 37.8884 18.5318 37.5975 18.903 37.3912C19.2788 37.1803 19.6959 37.075 20.1543 37.075C20.6951 37.075 21.1649 37.2078 21.5636 37.4737C21.9624 37.735 22.2374 38.1037 22.3886 38.5806H21.2818ZM23.9876 41.9837C23.8134 41.9837 23.669 41.9309 23.5545 41.8256C23.4445 41.7156 23.3895 41.5803 23.3895 41.42C23.3895 41.2594 23.4445 41.1266 23.5545 41.0212C23.669 40.9112 23.8134 40.8562 23.9876 40.8562C24.1572 40.8562 24.297 40.9112 24.407 41.0212C24.517 41.1266 24.572 41.2594 24.572 41.42C24.572 41.5803 24.517 41.7156 24.407 41.8256C24.297 41.9309 24.1572 41.9837 23.9876 41.9837ZM30.9229 37.1369V41.9356H29.9604V38.8144L28.6747 41.9356H27.946L26.6535 38.8144V41.9356H25.691V37.1369H26.7841L28.3104 40.705L29.8366 37.1369H30.9229Z" fill="#2F9E44"/>
</g>
<path d="M71.9399 11.8C71.5399 11.0667 70.9899 10.5083 70.2899 10.125C69.5899 9.74167 68.7733 9.55 67.8399 9.55C66.8066 9.55 65.8899 9.78333 65.0899 10.25C64.2899 10.7167 63.6649 11.3833 63.2149 12.25C62.7649 13.1167 62.5399 14.1167 62.5399 15.25C62.5399 16.4167 62.7649 17.4333 63.2149 18.3C63.6816 19.1667 64.3233 19.8333 65.1399 20.3C65.9566 20.7667 66.9066 21 67.9899 21C69.3233 21 70.4149 20.65 71.2649 19.95C72.1149 19.2333 72.6733 18.2417 72.9399 16.975H66.9399V14.3H76.3899V17.35C76.1566 18.5667 75.6566 19.6917 74.8899 20.725C74.1233 21.7583 73.1316 22.5917 71.9149 23.225C70.7149 23.8417 69.3649 24.15 67.8649 24.15C66.1816 24.15 64.6566 23.775 63.2899 23.025C61.9399 22.2583 60.8733 21.2 60.0899 19.85C59.3233 18.5 58.9399 16.9667 58.9399 15.25C58.9399 13.5333 59.3233 12 60.0899 10.65C60.8733 9.28333 61.9399 8.225 63.2899 7.475C64.6566 6.70833 66.1733 6.325 67.8399 6.325C69.8066 6.325 71.5149 6.80833 72.9649 7.775C74.4149 8.725 75.4149 10.0667 75.9649 11.8H71.9399ZM82.4794 12.3C82.9294 11.5667 83.5127 10.9917 84.2294 10.575C84.9627 10.1583 85.7961 9.95 86.7294 9.95V13.625H85.8044C84.7044 13.625 83.8711 13.8833 83.3044 14.4C82.7544 14.9167 82.4794 15.8167 82.4794 17.1V24H78.9794V10.15H82.4794V12.3ZM101.962 16.775C101.962 17.275 101.928 17.725 101.862 18.125H91.7368C91.8201 19.125 92.1701 19.9083 92.7868 20.475C93.4035 21.0417 94.1618 21.325 95.0618 21.325C96.3618 21.325 97.2868 20.7667 97.8368 19.65H101.612C101.212 20.9833 100.445 22.0833 99.3118 22.95C98.1785 23.8 96.7868 24.225 95.1368 24.225C93.8035 24.225 92.6035 23.9333 91.5368 23.35C90.4868 22.75 89.6618 21.9083 89.0618 20.825C88.4785 19.7417 88.1868 18.4917 88.1868 17.075C88.1868 15.6417 88.4785 14.3833 89.0618 13.3C89.6451 12.2167 90.4618 11.3833 91.5118 10.8C92.5618 10.2167 93.7702 9.925 95.1368 9.925C96.4535 9.925 97.6285 10.2083 98.6618 10.775C99.7118 11.3417 100.52 12.15 101.087 13.2C101.67 14.2333 101.962 15.425 101.962 16.775ZM98.3368 15.775C98.3202 14.875 97.9952 14.1583 97.3618 13.625C96.7285 13.075 95.9535 12.8 95.0368 12.8C94.1702 12.8 93.4368 13.0667 92.8368 13.6C92.2535 14.1167 91.8952 14.8417 91.7618 15.775H98.3368ZM117.392 16.775C117.392 17.275 117.358 17.725 117.292 18.125H107.167C107.25 19.125 107.6 19.9083 108.217 20.475C108.833 21.0417 109.592 21.325 110.492 21.325C111.792 21.325 112.717 20.7667 113.267 19.65H117.042C116.642 20.9833 115.875 22.0833 114.742 22.95C113.608 23.8 112.217 24.225 110.567 24.225C109.233 24.225 108.033 23.9333 106.967 23.35C105.917 22.75 105.092 21.9083 104.492 20.825C103.908 19.7417 103.617 18.4917 103.617 17.075C103.617 15.6417 103.908 14.3833 104.492 13.3C105.075 12.2167 105.892 11.3833 106.942 10.8C107.992 10.2167 109.2 9.925 110.567 9.925C111.883 9.925 113.058 10.2083 114.092 10.775C115.142 11.3417 115.95 12.15 116.517 13.2C117.1 14.2333 117.392 15.425 117.392 16.775ZM113.767 15.775C113.75 14.875 113.425 14.1583 112.792 13.625C112.158 13.075 111.383 12.8 110.467 12.8C109.6 12.8 108.867 13.0667 108.267 13.6C107.683 14.1167 107.325 14.8417 107.192 15.775H113.767ZM127.621 9.95C129.271 9.95 130.605 10.475 131.621 11.525C132.638 12.5583 133.146 14.0083 133.146 15.875V24H129.646V16.35C129.646 15.25 129.371 14.4083 128.821 13.825C128.271 13.225 127.521 12.925 126.571 12.925C125.605 12.925 124.838 13.225 124.271 13.825C123.721 14.4083 123.446 15.25 123.446 16.35V24H119.946V10.15H123.446V11.875C123.913 11.275 124.505 10.8083 125.221 10.475C125.955 10.125 126.755 9.95 127.621 9.95ZM161.457 6.55V24H157.957V12.65L153.282 24H150.632L145.932 12.65V24H142.432V6.55H146.407L151.957 19.525L157.507 6.55H161.457ZM164.017 17.025C164.017 15.625 164.292 14.3833 164.842 13.3C165.409 12.2167 166.167 11.3833 167.117 10.8C168.084 10.2167 169.159 9.925 170.342 9.925C171.375 9.925 172.275 10.1333 173.042 10.55C173.825 10.9667 174.45 11.4917 174.917 12.125V10.15H178.442V24H174.917V21.975C174.467 22.625 173.842 23.1667 173.042 23.6C172.259 24.0167 171.35 24.225 170.317 24.225C169.15 24.225 168.084 23.925 167.117 23.325C166.167 22.725 165.409 21.8833 164.842 20.8C164.292 19.7 164.017 18.4417 164.017 17.025ZM174.917 17.075C174.917 16.225 174.75 15.5 174.417 14.9C174.084 14.2833 173.634 13.8167 173.067 13.5C172.5 13.1667 171.892 13 171.242 13C170.592 13 169.992 13.1583 169.442 13.475C168.892 13.7917 168.442 14.2583 168.092 14.875C167.759 15.475 167.592 16.1917 167.592 17.025C167.592 17.8583 167.759 18.5917 168.092 19.225C168.442 19.8417 168.892 20.3167 169.442 20.65C170.009 20.9833 170.609 21.15 171.242 21.15C171.892 21.15 172.5 20.9917 173.067 20.675C173.634 20.3417 174.084 19.875 174.417 19.275C174.75 18.6583 174.917 17.925 174.917 17.075ZM185.36 12.3C185.81 11.5667 186.394 10.9917 187.11 10.575C187.844 10.1583 188.677 9.95 189.61 9.95V13.625H188.685C187.585 13.625 186.752 13.8833 186.185 14.4C185.635 14.9167 185.36 15.8167 185.36 17.1V24H181.86V10.15H185.36V12.3ZM196.043 13.025V19.725C196.043 20.1917 196.151 20.5333 196.368 20.75C196.601 20.95 196.984 21.05 197.518 21.05H199.143V24H196.943C193.993 24 192.518 22.5667 192.518 19.7V13.025H190.868V10.15H192.518V6.725H196.043V10.15H199.143V13.025H196.043Z" fill="white"/>
<path d="M62.326 44.112C61.5793 44.112 60.8653 44 60.184 43.776C59.5027 43.5427 58.966 43.244 58.574 42.88L59.092 41.788C59.4653 42.1147 59.9413 42.3853 60.52 42.6C61.0987 42.8147 61.7007 42.922 62.326 42.922C62.8953 42.922 63.3573 42.8567 63.712 42.726C64.0667 42.5953 64.328 42.418 64.496 42.194C64.664 41.9607 64.748 41.6993 64.748 41.41C64.748 41.074 64.636 40.8033 64.412 40.598C64.1973 40.3927 63.9127 40.2293 63.558 40.108C63.2127 39.9773 62.83 39.8653 62.41 39.772C61.99 39.6787 61.5653 39.5713 61.136 39.45C60.716 39.3193 60.3287 39.156 59.974 38.96C59.6287 38.764 59.3487 38.5027 59.134 38.176C58.9193 37.84 58.812 37.4107 58.812 36.888C58.812 36.384 58.9427 35.922 59.204 35.502C59.4747 35.0727 59.8853 34.732 60.436 34.48C60.996 34.2187 61.7053 34.088 62.564 34.088C63.1333 34.088 63.698 34.1627 64.258 34.312C64.818 34.4613 65.3033 34.676 65.714 34.956L65.252 36.076C64.832 35.796 64.3887 35.5953 63.922 35.474C63.4553 35.3433 63.0027 35.278 62.564 35.278C62.0133 35.278 61.5607 35.348 61.206 35.488C60.8513 35.628 60.59 35.8147 60.422 36.048C60.2633 36.2813 60.184 36.5427 60.184 36.832C60.184 37.1773 60.2913 37.4527 60.506 37.658C60.73 37.8633 61.0147 38.0267 61.36 38.148C61.7147 38.2693 62.102 38.3813 62.522 38.484C62.942 38.5773 63.362 38.6847 63.782 38.806C64.2113 38.9273 64.5987 39.086 64.944 39.282C65.2987 39.478 65.5833 39.7393 65.798 40.066C66.0127 40.3927 66.12 40.8127 66.12 41.326C66.12 41.8207 65.9847 42.2827 65.714 42.712C65.4433 43.132 65.0233 43.4727 64.454 43.734C63.894 43.986 63.1847 44.112 62.326 44.112ZM68.1653 44V34.2H69.5653V44H68.1653ZM73.7733 38.428H78.8133V39.618H73.7733V38.428ZM73.8993 42.782H79.6113V44H72.4993V34.2H79.4153V35.418H73.8993V42.782ZM73.4653 33.402L75.3273 31.582H76.6153L78.4773 33.402H77.2593L75.4113 31.862H76.5313L74.6833 33.402H73.4653ZM85.9382 44.112C84.6502 44.112 83.6375 43.7433 82.9002 43.006C82.1629 42.2687 81.7942 41.1907 81.7942 39.772V34.2H83.1942V39.716C83.1942 40.808 83.4322 41.606 83.9082 42.11C84.3935 42.614 85.0749 42.866 85.9522 42.866C86.8389 42.866 87.5202 42.614 87.9962 42.11C88.4815 41.606 88.7242 40.808 88.7242 39.716V34.2H90.0822V39.772C90.0822 41.1907 89.7135 42.2687 88.9762 43.006C88.2482 43.7433 87.2355 44.112 85.9382 44.112ZM98.6582 44V35.418H95.2982V34.2H103.404V35.418H100.044V44H98.6582ZM111.957 34.2H113.357V44H111.957V34.2ZM106.329 44H104.929V34.2H106.329V44ZM112.083 39.632H106.189V38.414H112.083V39.632ZM116.29 44V34.2H117.69V44H116.29ZM116.99 46.744C116.794 46.744 116.626 46.6787 116.486 46.548C116.346 46.4173 116.276 46.2493 116.276 46.044C116.276 45.8293 116.346 45.652 116.486 45.512C116.626 45.3813 116.794 45.316 116.99 45.316C117.186 45.316 117.354 45.3813 117.494 45.512C117.634 45.652 117.704 45.8293 117.704 46.044C117.704 46.2493 117.634 46.4173 117.494 46.548C117.354 46.6787 117.186 46.744 116.99 46.744ZM123.096 44L127.17 38.442V39.52L123.32 34.2H124.916L127.968 38.386L127.338 38.4L130.376 34.2H131.902L128.08 39.436V38.428L132.154 44H130.544L127.296 39.534H127.912L124.706 44H123.096ZM131.855 44L136.293 34.2H137.679L142.131 44H140.661L136.699 34.984H137.259L133.297 44H131.855ZM133.745 41.55L134.123 40.43H139.639L140.045 41.55H133.745ZM143.593 44V34.2H144.741L151.223 42.25H150.621V34.2H152.021V44H150.873L144.391 35.95H144.993V44H143.593ZM161.982 34.2H163.382V44H161.982V34.2ZM156.354 44H154.954V34.2H156.354V44ZM162.108 39.632H156.214V38.414H162.108V39.632Z" fill="white"/>
<defs>
<linearGradient id="paint0_linear_43_3438" x1="11.2096" y1="45.9272" x2="49.8112" y2="8.94659" gradientUnits="userSpaceOnUse">
<stop offset="0.292903" stop-color="white"/>
</linearGradient>
<linearGradient id="paint1_linear_43_3438" x1="18.3647" y1="20.833" x2="18.3647" y2="36.4578" gradientUnits="userSpaceOnUse">
<stop stop-color="white"/>
<stop offset="1" stop-color="#FCFCFC"/>
</linearGradient>
<linearGradient id="paint2_linear_43_3438" x1="30.5284" y1="20.833" x2="30.5284" y2="36.4578" gradientUnits="userSpaceOnUse">
<stop stop-color="white"/>
<stop offset="1" stop-color="#FCFCFC"/>
</linearGradient>
<clipPath id="clip0_43_3438">
<rect width="50" height="50" fill="white"/>
</clipPath>
</defs>
</svg>
